<svg fill="#8A2BE2" width="64px" height="64px" viewBox="0 0 1024 1024" xmlns="http://www.w3.org/2000/svg"><path d="M716.4 92.4C696.2 46.9 646.2 12 585.2 12c-54.3 0-102.3 29.8-128.3 74.3-25.9-44.5-74-74.3-128.3-74.3-61 0-111 34.9-131.2 80.4C131.9 104.9 64 189.4 64 288c0 105.9 85.1 193.3 189.6 195.9-1.2-5.7-1.6-11.4-1.6-17.2 0-77.9 44.8-146.4 110.1-178.1 27.5-13.3 58.3-20.6 90.9-20.6s63.4 7.3 90.9 20.6c65.4 31.7 110.1 100.2 110.1 178.1 0 5.8-.4 11.5-1.6 17.2C874.9 481.3 960 393.9 960 288c0-98.6-67.9-183.1-133.5-195.6zM512 576c-112.9 0-210.7 85.2-221.1 195.8-1.5 16.1-2.2 32.3-2.2 48.5 0 27.6 4.4 54.3 12.9 79.9 26.5 79.9 104.1 135.8 193.2 135.8 91.1 0 168.3-57.9 192.3-139.7 10.6-35.8 16.1-73.3 16.1-112.5 0-21.9-2.3-43.4-6.8-64.3-13.4-59.5-62.8-107.5-121-125.7-16-5-32.9-7.8-50.4-7.8s-34.4 2.8-50.4 7.8c-3.1 1-6.1 2-9.1 3.1-6.9 2.4-13.7 5.1-20.2 8-11.2 5-21.9 10.6-32.1 16.7-19.1 11.3-36.4 25.1-51.2 40.7-18.9 19.8-32.9 43.8-40.7 70.1-2.7 9.1-4.8 18.3-6.4 27.6-3.8 22.8-5.7 46.1-5.7 69.5 0 13.9 1.2 27.7 3.5 41.2C399.7 706.8 451.3 640 512 640c59.9 0 111.2 65.5 121.2 150.9 1.4 12 2.1 24.2 2.1 36.4 0 35.8-6.9 70.1-20.2 101.8-19.1 31.7-48.5 56.1-82.6 68.3-28.9 10.2-59.7 15.6-91.4 15.6-70.6 0-134.2-38.3-166.8-98.3-11.8-21.9-20.6-45.5-25.9-70.1-6.4-30.2-9.7-61.2-9.7-92.7 0-21.4 2.3-42.6 6.8-63.1 12.5-56.7 58.3-102.3 114.7-116.2 22.8-5.7 46.6-8.7 71-8.7 30.7 0 60.3 4.5 87.8 13.4 20.2 6.6 39.1 15.5 56.1 26.4 21.1 13.4 39.4 30.1 54.1 49.3 15.8 20.7 27.7 44.1 35.2 69.5 3.3 11.2 5.9 22.8 7.8 34.6 2.7 16.5 4.1 33.3 4.1 50.4 0 14.1-1.3 28.1-3.9 41.8-10.4-86.4-82.1-152.9-166.8-152.9z"/></svg>
